<svg width="28" height="28" viewBox="0 0 28 28" fill="none" xmlns="http://www.w3.org/2000/svg">
<path fill-rule="evenodd" clip-rule="evenodd" d="M28 14C28 6.26801 21.732 0 14 0C6.26801 0 0 6.26801 0 14C0 21.732 6.26801 28 14 28C21.732 28 28 21.732 28 14ZM9.00094 16.61L11.1574 5.80429C11.2508 5.33667 11.6613 5 12.1381 5H14.1744C14.8082 5 15.2821 5.58209 15.1536 6.20273L14.0888 11.3458H14.1366C14.9249 10.5526 16.167 9.9757 17.5524 9.9757C19.9411 9.9757 21.0876 11.9468 21.0876 14.062C21.0876 17.9801 18.6273 22.3308 13.1333 22.3308C10.0281 22.3308 8.69042 20.9847 8.7143 18.9175C8.7143 18.1243 8.83374 17.3792 9.00094 16.61ZM15.5698 13.2928C14.5665 13.2928 13.5633 14.3024 13.2289 16.0571L13.0617 16.8984C13.0536 16.9415 13.0453 16.985 13.0369 17.0288C12.9704 17.3753 12.8998 17.7429 12.9422 18.1483C12.9661 18.8694 13.3961 19.254 14.0171 19.254C15.5698 19.254 16.8119 16.8022 16.8119 14.9754C16.8119 13.9659 16.4058 13.2928 15.5698 13.2928Z" fill="black"/>
</svg>
