<svg width="33" height="28" viewBox="0 0 33 28" fill="none" xmlns="http://www.w3.org/2000/svg">
<g clip-path="url(#clip0_9682_175)">
<path d="M14.8681 25.5079C22.0264 24.463 27.5687 18.6654 27.5687 11.5688C27.5698 10.5532 27.4552 9.54067 27.2272 8.55086C30.2853 10.3692 32.3125 13.5419 32.3125 17.1517C32.3102 19.1332 31.6956 21.0658 30.5525 22.6857C30.6474 24.1836 31.1787 25.4969 32.1496 26.6271C32.2379 26.729 32.2939 26.8548 32.3104 26.9886C32.3268 27.1224 32.303 27.258 32.2419 27.3782C32.1809 27.4984 32.0853 27.5977 31.9675 27.6635C31.8497 27.7294 31.7149 27.7587 31.5803 27.7477C29.4188 27.5725 27.6509 27.0753 26.2768 26.2561C24.7025 26.9953 22.9835 27.3765 21.2437 27.3721C18.9822 27.3823 16.7667 26.7345 14.8681 25.5079Z" fill="#282735"/>
<path d="M9.58203 22.1743C10.5308 22.3984 11.5238 22.5184 12.5469 22.5184C19.0964 22.5184 24.4062 17.6158 24.4062 11.5672C24.4062 5.52183 19.0964 0.617645 12.5469 0.617645C5.99734 0.617645 0.6875 5.52025 0.6875 11.5688C0.6875 14.6404 2.05686 17.4169 4.26429 19.4057C4.07733 20.7453 3.50309 22.0015 2.61188 23.0203C2.51698 23.1294 2.45684 23.2642 2.43914 23.4076C2.42144 23.551 2.44699 23.6964 2.51253 23.8252C2.57807 23.954 2.68061 24.0604 2.80704 24.1307C2.93346 24.201 3.07803 24.2321 3.22224 24.2199C5.91037 24.0021 8.03082 23.3202 9.58203 22.1743Z" fill="#282735"/>
</g>
<defs>
<clipPath id="clip0_9682_175">
<rect width="33" height="28" fill="white"/>
</clipPath>
</defs>
</svg>
