<svg width="29" height="28" viewBox="0 0 29 28" fill="none" xmlns="http://www.w3.org/2000/svg">
<path fill-rule="evenodd" clip-rule="evenodd" d="M11.6053 1.36503C11.3333 1.90003 11.3333 2.60003 11.3333 4.00003V16C11.3333 17.4 11.3333 18.1 11.6053 18.635C11.8452 19.1053 12.2278 19.4876 12.6983 19.727C13.2333 20 13.9333 20 15.3333 20H21.3333C22.7333 20 23.4333 20 23.9683 19.727C24.4384 19.4874 24.8207 19.1052 25.0603 18.635C25.3333 18.1 25.3333 17.4 25.3333 16V7.98803C25.3333 7.25403 25.3333 6.88803 25.2503 6.54203C25.1765 6.23593 25.0551 5.94335 24.8903 5.67503C24.7053 5.37203 24.4463 5.11303 23.9273 4.59503L20.7393 1.40503C20.2203 0.88703 19.9613 0.62803 19.6583 0.44203C19.39 0.277291 19.0974 0.155805 18.7913 0.0820298C18.4453 2.98172e-05 18.0783 2.98023e-05 17.3453 2.98023e-05H15.3333C13.9333 2.98023e-05 13.2333 2.98619e-05 12.6983 0.27203C12.2277 0.511755 11.845 0.894384 11.6053 1.36503ZM17.3333 7.00003V2.82003C17.3333 2.66055 17.3798 2.50453 17.467 2.37103C17.5542 2.23752 17.6785 2.13231 17.8245 2.06825C17.9706 2.00419 18.1321 1.98405 18.2894 2.0103C18.4467 2.03654 18.593 2.10803 18.7103 2.21603L23.0963 6.60203C23.2109 6.71663 23.2888 6.86263 23.3204 7.02156C23.3519 7.18049 23.3356 7.34521 23.2735 7.49488C23.2115 7.64454 23.1064 7.77242 22.9716 7.86234C22.8368 7.95226 22.6783 8.00018 22.5163 8.00003H18.3333C18.0681 8.00003 17.8137 7.89467 17.6262 7.70714C17.4387 7.5196 17.3333 7.26525 17.3333 7.00003Z" fill="#282735"/>
<path d="M3.33331 10C3.33331 8.89543 4.22874 8 5.33331 8H7.33331C7.8856 8 8.33331 8.44772 8.33331 9V19C8.33331 21.2091 10.1242 23 12.3333 23H16.3333C16.8856 23 17.3333 23.4477 17.3333 24V26C17.3333 27.1046 16.4379 28 15.3333 28H8.33331H7.33331C5.12417 28 3.33331 26.2091 3.33331 24V10Z" fill="#282735"/>
</svg>
